<?xml version="1.0" encoding="UTF-8"?>
<svg xmlns="http://www.w3.org/2000/svg" width="140" height="28" viewBox="0 0 140 28" fill="none">
  <g clip-path="url(#clip0_15_13)">
    <path d="M7.159 2.54004H0V9.69904H7.159V2.54004Z" fill="#1EB473"></path>
    <path d="M16.1651 2.54004H9.0061V9.69904H16.1651V2.54004Z" fill="#1EB473"></path>
    <path d="M7.159 11.5459H0V18.7049H7.159V11.5459Z" fill="#1EB473"></path>
    <path d="M25.1719 11.5459H18.0129V18.7049H25.1719V11.5459Z" fill="#1EB473"></path>
    <path d="M16.1651 11.5459H9.0061V18.7049H16.1651V11.5459Z" fill="#1EB473"></path>
    <path d="M7.159 20.5527H0V27.7117H7.159V20.5527Z" fill="#1EB473"></path>
    <path d="M25.1719 20.5527H18.0129V27.7117H25.1719V20.5527Z" fill="#1EB473"></path>
    <path d="M16.1651 20.5527H9.0061V27.7117H16.1651V20.5527Z" fill="#1EB473"></path>
    <path d="M27.7119 0H18.0129V9.699H27.7119V0Z" fill="#4D4E4E"></path>
    <path d="M32.9199 22.5244H36.5039V23.2114H35.1389V27.6604H34.2969V23.2114H32.9219L32.9199 22.5244Z" fill="#4D4E4E"></path>
    <path d="M40.9848 25.4144H38.5678V27.6604H37.7258V22.5244H38.5678V24.7244H40.9848V22.5244H41.8268V27.6604H40.9848V25.4144Z" fill="#4D4E4E"></path>
    <path d="M46.1451 23.2046H44.1451V24.7116H45.919V25.3996H44.149V26.9736H46.149V27.6606H43.311V22.5166H46.149L46.1451 23.2046Z" fill="#4D4E4E"></path>
    <path d="M54.573 24.0007H53.56C53.4292 23.7535 53.2303 23.549 52.9867 23.4116C52.7431 23.2742 52.4652 23.2097 52.186 23.2256C51.7098 23.2503 51.2612 23.4569 50.9329 23.8027C50.6045 24.1485 50.4214 24.6073 50.4214 25.0842C50.4214 25.561 50.6045 26.0197 50.9329 26.3655C51.2612 26.7113 51.7098 26.9179 52.186 26.9426C52.5914 26.9662 52.99 26.8302 53.2965 26.5637C53.6029 26.2972 53.793 25.9214 53.826 25.5166H51.897V24.8456H54.728V25.5026C54.6468 26.1168 54.3433 26.6799 53.8748 27.0854C53.4064 27.4908 52.8055 27.7104 52.186 27.7026C51.4901 27.7026 50.8227 27.4262 50.3306 26.9341C49.8385 26.442 49.562 25.7745 49.562 25.0786C49.562 24.3827 49.8385 23.7153 50.3306 23.2232C50.8227 22.7311 51.4901 22.4546 52.186 22.4546C52.6953 22.4317 53.1991 22.5683 53.627 22.8454C54.055 23.1226 54.3857 23.5265 54.573 24.0007V24.0007Z" fill="#4D4E4E"></path>
    <path d="M57.702 22.5244C58.921 22.5244 59.52 23.2244 59.52 24.0614C59.5279 24.4078 59.4127 24.7458 59.1948 25.0151C58.9768 25.2845 58.6704 25.4678 58.33 25.5324L59.602 27.6604H58.5959L57.413 25.6054H56.771V27.6604H55.929V22.5244H57.702ZM57.702 23.2114H56.77V24.9334H57.702C57.8244 24.952 57.9495 24.943 58.068 24.9069C58.1865 24.8709 58.2955 24.8088 58.3868 24.7252C58.4782 24.6415 58.5497 24.5385 58.5961 24.4236C58.6425 24.3088 58.6626 24.185 58.655 24.0614C58.655 23.5434 58.359 23.2114 57.702 23.2114Z" fill="#4D4E4E"></path>
    <path d="M63.8069 23.2046H61.8069V24.7116H63.5799V25.3996H61.8138V26.9736H63.8138V27.6606H60.9749V22.5166H63.8138L63.8069 23.2046Z" fill="#4D4E4E"></path>
    <path d="M68.3089 26.6116H66.1579L65.7889 27.6616H64.9089L66.7489 22.5176H67.7239L69.5639 27.6616H68.6779L68.3089 26.6116ZM67.2379 23.5376L66.3949 25.9246H68.0729L67.2379 23.5376Z" fill="#4D4E4E"></path>
    <path d="M70.4688 22.5244H74.0538V23.2114H72.6819V27.6604H71.8398V23.2114H70.4648L70.4688 22.5244Z" fill="#4D4E4E"></path>
    <path d="M81.9709 25.1114C81.9852 25.4654 81.923 25.8184 81.7885 26.1461C81.6539 26.4739 81.4503 26.7688 81.1915 27.0108C80.9327 27.2527 80.6247 27.436 80.2886 27.5481C79.9525 27.6602 79.5962 27.6985 79.2439 27.6604H77.5659V22.5244H79.2439C79.5987 22.4899 79.9567 22.5319 80.2938 22.6477C80.6309 22.7635 80.9391 22.9504 81.1977 23.1957C81.4563 23.441 81.6592 23.739 81.7926 24.0695C81.926 24.4 81.9868 24.7553 81.9709 25.1114V25.1114ZM79.2439 26.9734C79.4951 27.0006 79.7492 26.9711 79.9874 26.8872C80.2257 26.8032 80.4421 26.6669 80.6207 26.4882C80.7994 26.3096 80.9357 26.0932 81.0197 25.8549C81.1036 25.6167 81.1331 25.3626 81.1059 25.1114C81.1347 24.8582 81.1066 24.6018 81.0238 24.3608C80.9409 24.1198 80.8054 23.9004 80.627 23.7184C80.4487 23.5364 80.232 23.3964 79.9927 23.3087C79.7534 23.2211 79.4977 23.1878 79.2439 23.2115H78.4059V26.9734H79.2439Z" fill="#4D4E4E"></path>
    <path d="M86.2738 26.6116H84.1228L83.7538 27.6616H82.8728L84.7138 22.5176H85.6888L87.5288 27.6616H86.6428L86.2738 26.6116ZM85.2028 23.5376L84.3598 25.9246H86.0378L85.2028 23.5376Z" fill="#4D4E4E"></path>
    <path d="M88.4348 22.5244H92.0198V23.2114H90.6558V27.6604H89.8138V23.2114H88.4388L88.4348 22.5244Z" fill="#4D4E4E"></path>
    <path d="M96.337 26.6116H94.186L93.817 27.6616H92.937L94.777 22.5176H95.752L97.593 27.6616H96.706L96.337 26.6116ZM95.266 23.5376L94.425 25.9246H96.103L95.266 23.5376Z" fill="#4D4E4E"></path>
    <path d="M103.393 22.4567C103.902 22.4334 104.406 22.5696 104.834 22.8464C105.262 23.1232 105.592 23.5268 105.78 24.0007H104.767C104.642 23.7466 104.446 23.5351 104.201 23.3927C103.957 23.2504 103.675 23.1835 103.393 23.2006C102.915 23.2337 102.467 23.447 102.14 23.7975C101.812 24.1481 101.63 24.6097 101.63 25.0892C101.63 25.5686 101.812 26.0302 102.14 26.3807C102.467 26.7313 102.915 26.9446 103.393 26.9776C103.675 26.9947 103.957 26.9279 104.201 26.7855C104.446 26.6432 104.642 26.4316 104.767 26.1776H105.78C105.592 26.6507 105.261 27.0533 104.833 27.3288C104.405 27.6044 103.901 27.7393 103.393 27.7146C102.697 27.7146 102.03 27.4382 101.538 26.9461C101.046 26.454 100.769 25.7866 100.769 25.0906C100.769 24.3947 101.046 23.7273 101.538 23.2352C102.03 22.7431 102.697 22.4666 103.393 22.4666V22.4567Z" fill="#4D4E4E"></path>
    <path d="M109.482 27.7121C108.962 27.7129 108.454 27.5595 108.021 27.2713C107.588 26.9832 107.251 26.5732 107.051 26.0932C106.852 25.6133 106.799 25.0849 106.9 24.575C107 24.065 107.25 23.5963 107.617 23.2283C107.984 22.8602 108.452 22.6093 108.962 22.5072C109.472 22.4051 110 22.4565 110.481 22.6549C110.961 22.8532 111.372 23.1896 111.661 23.6215C111.951 24.0533 112.105 24.5613 112.106 25.0811C112.114 25.4282 112.052 25.7735 111.923 26.0959C111.794 26.4183 111.601 26.7113 111.356 26.9572C111.111 27.203 110.818 27.3967 110.496 27.5264C110.174 27.6562 109.829 27.7194 109.482 27.7121V27.7121ZM109.482 26.9801C109.862 27.0084 110.243 26.9215 110.573 26.7307C110.903 26.5398 111.169 26.254 111.334 25.9102C111.5 25.5665 111.558 25.1808 111.502 24.8035C111.445 24.4261 111.276 24.0746 111.017 23.7946C110.758 23.5146 110.42 23.3191 110.048 23.2336C109.677 23.1481 109.288 23.1766 108.932 23.3153C108.577 23.454 108.271 23.6965 108.056 24.0113C107.84 24.3261 107.724 24.6985 107.723 25.0801C107.7 25.3233 107.729 25.5685 107.808 25.7998C107.886 26.031 108.013 26.2432 108.179 26.4224C108.345 26.6016 108.546 26.7439 108.771 26.84C108.995 26.9361 109.238 26.9838 109.482 26.9801V26.9801Z" fill="#4D4E4E"></path>
    <path d="M113.304 22.5244H114.213L116.013 26.5524L117.813 22.5244H118.713V27.6604H117.871V24.1434L116.304 27.6604H115.72L114.146 24.1434V27.6604H113.303L113.304 22.5244Z" fill="#4D4E4E"></path>
    <path d="M121.969 25.5774H121.038V27.6614H120.195V22.5254H121.969C123.189 22.5254 123.788 23.2254 123.788 24.0544C123.788 24.7854 123.307 25.5774 121.969 25.5774ZM121.969 24.8894C122.627 24.8894 122.923 24.5714 122.923 24.0544C122.923 23.5374 122.623 23.2124 121.969 23.2124H121.038V24.8894H121.969Z" fill="#4D4E4E"></path>
    <path d="M128.061 26.6116H125.91L125.54 27.6616H124.66L126.501 22.5176H127.476L129.316 27.6616H128.429L128.061 26.6116ZM126.989 23.5376L126.147 25.9246H127.82L126.989 23.5376Z" fill="#4D4E4E"></path>
    <path d="M134.705 22.5176V27.6616H133.867L131.332 23.8266V27.6616H130.49V22.5176H131.332L133.867 26.3456V22.5176H134.705Z" fill="#4D4E4E"></path>
    <path d="M135.743 22.5244H136.682L137.872 25.0444L139.061 22.5244H139.993L138.293 25.7984V27.6604H137.45V25.7984L135.743 22.5244Z" fill="#4D4E4E"></path>
    <path d="M46.0129 10.2125C46.0129 14.9405 42.7869 17.8334 37.8619 17.8334H32.8469V2.48145H37.8619C42.7869 2.48145 46.0129 5.46346 46.0129 10.2125ZM37.8619 15.7794C41.4849 15.7794 43.4289 13.7025 43.4289 10.2125C43.4289 6.70046 41.4849 4.53442 37.8619 4.53442H35.3619V15.7775L37.8619 15.7794Z" fill="#4D4E4E"></path>
    <path d="M56.658 14.696H50.231L49.131 17.833H46.499L51.999 2.45996H54.915L60.415 17.833H57.765L56.658 14.696ZM53.458 5.50696L50.939 12.643H55.949L53.458 5.50696Z" fill="#4D4E4E"></path>
    <path d="M60.8979 2.48145H71.6089V4.53546H67.5219V17.8354H65.0089V4.53546H60.8999L60.8979 2.48145Z" fill="#4D4E4E"></path>
    <path d="M82.3018 14.696H75.8738L74.7739 17.833H72.1418L77.6418 2.45996H80.5569L86.0569 17.833H83.4069L82.3018 14.696ZM79.1019 5.50696L76.5839 12.643H81.5978L79.1019 5.50696Z" fill="#4D4E4E"></path>
    <path d="M101.473 6.89914H98.4469C98.0563 6.15934 97.4614 5.54739 96.7329 5.13608C96.0044 4.72477 95.1731 4.53142 94.3379 4.57913C91.2899 4.57913 89.0809 6.74314 89.0809 10.1231C89.0809 13.5031 91.2899 15.6902 94.3379 15.6902C95.5496 15.7597 96.7405 15.3526 97.6561 14.5558C98.5717 13.7591 99.1394 12.6358 99.2379 11.4261H93.4719V9.41617H101.932V11.3831C101.691 13.2207 100.784 14.906 99.3834 16.1194C97.9825 17.3328 96.1851 17.99 94.3319 17.9662C93.2947 17.9779 92.2655 17.7837 91.3038 17.3949C90.3422 17.006 89.4672 16.4303 88.7296 15.701C87.992 14.9717 87.4065 14.1033 87.0068 13.1461C86.6072 12.1889 86.4014 11.1619 86.4014 10.1247C86.4014 9.08739 86.6072 8.06037 87.0068 7.10318C87.4065 6.14598 87.992 5.27762 88.7296 4.54831C89.4672 3.819 90.3422 3.24322 91.3038 2.8544C92.2655 2.46558 93.2947 2.27146 94.3319 2.28317C95.8548 2.21289 97.3617 2.62003 98.642 3.44778C99.9222 4.27554 100.912 5.48251 101.473 6.90012V6.89914Z" fill="#4D4E4E"></path>
    <path d="M112.56 14.696H106.132L105.032 17.833H102.404L107.904 2.45996H110.82L116.32 17.833H113.669L112.56 14.696ZM109.36 5.50696L106.841 12.643H111.856L109.36 5.50696Z" fill="#4D4E4E"></path>
    <path d="M122.897 11.6035H120.114V17.8325H117.597V2.48145H122.897C126.542 2.48145 128.331 4.55747 128.331 7.05347C128.33 9.24047 126.897 11.6035 122.897 11.6035ZM122.897 9.54944C124.863 9.54944 125.746 8.59944 125.746 7.04944C125.746 5.45944 124.862 4.53046 122.897 4.53046H120.114V9.55347L122.897 9.54944Z" fill="#4D4E4E"></path>
    <path d="M134.693 17.9863C131.623 17.9863 129.259 16.3083 129.259 13.5913H131.959C131.982 13.9232 132.072 14.2469 132.224 14.543C132.376 14.839 132.586 15.1013 132.842 15.3138C133.098 15.5264 133.395 15.685 133.714 15.7799C134.032 15.8749 134.367 15.9042 134.698 15.8663C136.466 15.8663 137.459 14.9163 137.459 13.6123C137.459 9.9013 129.309 12.3123 129.309 6.6543C129.309 3.9603 131.451 2.28027 134.589 2.28027C137.527 2.28027 139.603 3.82732 139.824 6.45532H137.041C136.949 5.85141 136.631 5.3051 136.151 4.92773C135.67 4.55037 135.064 4.37034 134.456 4.42432C132.998 4.37932 131.871 5.08728 131.871 6.56628C131.871 10.0343 140 7.86629 140 13.4803C139.993 15.7783 138.114 17.9863 134.693 17.9863Z" fill="#4D4E4E"></path>
  </g>
  <defs>
    <clipPath id="clip0_15_13">
      <rect width="140" height="27.713" fill="white"></rect>
    </clipPath>
  </defs>
</svg>
